<?xml version="1.0" encoding="utf-8"?>
<svg viewBox="0.0001 0 88.1752 100.0002" width="88.1752" height="100.0002" xmlns="http://www.w3.org/2000/svg">
  <g transform="matrix(0.1953129917383194, 0, 0, 0.1953129917383194, -54.374420166015625, 1.171875)">
    <path fill="#264de4" d="M 319.482 454.819 L 278.397 -6 L 729.853 -6 L 688.724 454.746 L 503.849 506 L 319.482 454.819 Z"/>
    <path fill="#2965f1" d="M 653.513 425.408 L 688.661 31.678 L 504.125 31.678 L 504.125 466.824 L 653.513 425.408 Z"/>
    <path fill="#ebebeb" d="M 372.585 202.59 L 377.65 259.107 L 504.125 259.107 L 504.125 202.59 L 372.585 202.59 Z M 367.544 144.715 L 504.125 144.715 L 504.125 88.197 L 362.406 88.197 L 367.544 144.715 Z M 504.125 349.372 L 503.877 349.438 L 440.933 332.442 L 436.91 287.366 L 380.174 287.366 L 388.093 376.107 L 503.865 408.247 L 504.125 408.174 L 504.125 349.372 Z"/>
    <path fill="#fff" d="M 503.93 202.59 L 503.93 259.107 L 573.525 259.107 L 566.965 332.406 L 503.93 349.419 L 503.93 408.219 L 619.794 376.107 L 620.644 366.558 L 633.924 217.766 L 635.304 202.59 L 645.507 88.197 L 503.93 88.197 L 503.93 144.715 L 583.569 144.715 L 578.425 202.59 L 503.93 202.59 Z"/>
  </g>
</svg>
