<?xml version="1.0" encoding="utf-8"?>
<svg viewBox="0 -0.0001 88.1865 99.9998" width="88.1865" height="99.9998" xmlns="http://www.w3.org/2000/svg">
  <g transform="matrix(0.2430720180273056, 0, 0, 0.2430720180273056, -4.039625167846676, -27.808000564575195)">
    <path fill="#e44d26" d="M 49.619 484.802 L 16.619 114.402 L 379.419 114.402 L 346.419 484.602 L 197.719 525.802"/>
    <path fill="#f16529" d="M 198.019 494.302 L 198.019 144.802 L 346.319 144.802 L 318.019 460.802"/>
    <path fill="#ebebeb" d="M 84.019 190.102 L 198.019 190.102 L 198.019 235.502 L 133.819 235.502 L 138.019 282.002 L 198.019 282.002 L 198.019 327.302 L 96.419 327.302 M 98.419 350.102 L 144.019 350.102 L 147.219 386.402 L 198.019 400.002 L 198.019 447.402 L 104.819 421.402"/>
    <path fill="#fff" d="M 311.619 190.102 L 197.819 190.102 L 197.819 235.502 L 307.419 235.502 M 303.319 282.002 L 197.819 282.002 L 197.819 327.402 L 253.819 327.402 L 248.519 386.402 L 197.819 400.002 L 197.819 447.202 L 290.819 421.402"/>
  </g>
</svg>