<?xml version="1.0" encoding="utf-8"?>
<svg viewBox="-35.9015 -35.8816 172 172" width="172" height="172" xmlns="http://www.w3.org/2000/svg">
  <g transform="matrix(0.364418059587, 0, 0, 0.364418059587, -176.893671052886, -174.643560300573)" style="transform-origin: 226.992px 224.762px;">
    <g style="transform-origin: 225.659px 224.216px;" transform="matrix(0.707107, 0.707107, -0.707107, 0.707107, 1.333247, 0.545701)">
      <ellipse style="fill-opacity: 0; fill: rgb(255, 255, 255); stroke-width: 11px; stroke: rgb(90, 90, 90);" cx="224.835" cy="224.216" rx="82.507" ry="166.872"/>
      <ellipse style="fill-opacity: 0; fill: rgb(255, 255, 255); stroke-width: 11px; transform-box: fill-box; transform-origin: 50% 50%; stroke: rgb(90, 90, 90);" cx="476.485" cy="143.977" rx="82.507" ry="166.872" transform="matrix(0, 1, -1, 0, -250.825516, 80.445282)"/>
    </g>
    <g>
      <g>
        <path style="stroke: rgb(0, 64, 255); fill: rgb(137, 0, 0); stroke-width: 0px;" d="M 154.127 238.716 L 149.592 244.311 C 154.32 247.318 164.592 243.373 169.386 238.312 L 207.386 191.11 L 201.011 190.98 L 166.186 236.035 C 161.754 241.276 154.915 241.042 154.127 238.716 Z"/>
        <path style="stroke: rgb(0, 0, 0); fill: rgb(137, 0, 0); stroke-width: 0px;" d="M 232.046 192.304 C 221.844 187.524 206.668 197.355 199.226 212.648 C 198.449 214.241 201.636 222.773 200.567 227.339 C 192.853 240.047 185.857 243.312 180.164 237.599 L 175.384 243.253 C 178.299 246.304 182.923 246.44 189.258 243.661 C 197.752 239.935 207.386 229.677 209.544 221.626 C 210.468 217.28 207.386 213.322 208.786 207.052 C 215.858 196.287 224.118 194.538 227.266 198.832 L 232.046 192.304 Z"/>
      </g>
      <g>
        <path style="stroke: rgb(0, 0, 0); stroke-width: 0px; fill: rgb(90, 90, 90);" d="M 244.696 191.088 L 240.265 196.423 L 245.628 196.54 L 208.028 244.633 L 214.032 244.633 C 228.431 226.629 241.995 208.781 255.772 191.088 L 244.696 191.088 Z"/>
        <path style="stroke: rgb(0, 0, 0); stroke-width: 0px; fill: rgb(90, 90, 90);" d="M 272.502 191.088 L 230.064 244.633 L 236.826 244.633 L 258.336 217.875 C 254.683 226.853 251.186 235.733 247.61 244.633 L 254.955 244.633 L 264.983 217.176 L 295.936 191.06 L 289.465 191.088 C 281.829 197.394 266.304 210.812 258.745 217.118 L 278.798 191.088 C 276.68 191.088 274.503 191.067 272.502 191.088 Z"/>
      </g>
    </g>
  </g>
</svg>