<svg xmlns="http://www.w3.org/2000/svg" viewBox="0 0 79.01 79.01"><defs><style>.cls-1{fill:#f40d12;}.cls-1,.cls-2{fill-rule:evenodd;}.cls-2{fill:#fff;}</style></defs><g id="Слой_2" data-name="Слой 2"><g id="Слой_1-2" data-name="Слой 1"><g id="icon"><path id="octagon" class="cls-1" d="M21.41,1.74,1.74,21.41A5.89,5.89,0,0,0,0,25.6V53.42a5.89,5.89,0,0,0,1.74,4.19L21.41,77.28A5.91,5.91,0,0,0,25.6,79H53.42a5.93,5.93,0,0,0,4.19-1.73L77.28,57.61A5.93,5.93,0,0,0,79,53.42V25.6a5.93,5.93,0,0,0-1.73-4.19L57.61,1.74A5.89,5.89,0,0,0,53.42,0H25.6A5.88,5.88,0,0,0,21.41,1.74Z"/><path id="Hand" class="cls-2" d="M38.56,68.15c13.09,0,16.2-12,16.2-12l7.51-21.58a14.75,14.75,0,0,0,.56-2.27c-7-1.31-8.49,3.62-8.49,3.62s-2.69,7-3.1,7-.47-.52-.47-.52V17.29a3.05,3.05,0,0,0-3.19-3.24,3,3,0,0,0-3.16,3.25V35.83s0,.75-.58.75-.52-.72-.52-.72V13.52s.2-3.64-3.16-3.64S37,13.55,37,13.55l0,22s0,.68-.51.68-.5-.67-.5-.67V17.12s.19-3.76-3.24-3.76-3.18,3.82-3.18,3.82l0,19.51s.06.57-.46.57a.54.54,0,0,1-.55-.57l0-11.79s0-3.27-2.79-3.27c-3,0-3,3.27-3,3.27V50.35S22,68.15,38.56,68.15Z"/></g></g></g></svg>