<?xml version="1.0" encoding="utf-8"?>
<svg width="100" height="100" viewBox="0 0 1024 1024" xmlns="http://www.w3.org/2000/svg">
  <path d="M 132 732 L 132 292 L 335 409 L 335 614 L 132 732 Z" style="fill: rgb(222, 101, 71);"/>
  <path d="M 513 953 L 513 722 L 334 614 L 132 732 L 513 953 Z" style="fill: rgb(253, 188, 77);"/>
  <path d="M 892 732 L 892 292 L 689 409 L 689 614 L 892 732 Z" style="fill: rgb(105, 179, 86);"/>
  <path d="M 513 953 L 513 722 L 690 614 L 892 732 L 513 953 Z" style="fill: rgb(209, 233, 147);"/>
  <path d="M 513 71 L 513 302 L 335 410 L 132 292 L 513 71 Z" style="fill: rgb(128, 183, 250);"/>
  <path d="M 513 71 L 513 302 L 689 410 L 892 292 L 513 71 Z" style="fill: rgb(69, 129, 225);"/>
  <path d="M 704 595 C 716 607 727 631 727 650 C 727 668 716 692 704 704 C 692 716 668 727 650 727 C 631 727 607 716 595 704 C 593 702 590 699 588 695 C 589 699 589 703 589 707 C 589 725 579 749 566 761 C 554 773 531 784 512 784 C 493 784 470 773 458 761 C 445 749 435 725 435 707 C 435 703 435 699 436 696 C 433 699 431 702 429 704 C 417 716 393 727 374 727 C 355 727 332 716 320 704 C 308 692 297 668 297 650 C 297 631 308 607 320 595 C 322 593 325 590 329 588 C 325 589 321 589 317 589 C 299 589 275 579 263 566 C 251 554 240 531 240 512 C 240 493 251 470 263 458 C 275 445 299 435 317 435 C 321 435 325 435 328 436 C 325 433 322 431 320 429 C 308 417 297 393 297 374 C 297 356 308 332 320 320 C 332 308 356 297 374 297 C 393 297 417 308 429 320 C 431 322 434 325 436 329 C 435 325 435 321 435 317 C 435 299 445 275 458 263 C 470 251 493 240 512 240 C 531 240 554 251 566 263 C 579 275 589 299 589 317 C 589 321 589 325 588 328 C 591 325 593 322 595 320 C 607 308 631 297 650 297 C 668 297 692 308 704 320 C 716 332 727 356 727 374 C 727 393 716 417 704 429 C 702 431 699 434 695 436 C 699 435 703 435 707 435 C 725 435 749 445 761 458 C 773 470 784 493 784 512 C 784 531 773 554 761 566 C 749 579 725 589 707 589 C 703 589 699 589 696 588 C 699 591 702 593 704 595 Z" style="fill: rgb(47, 47, 47);"/>
  <path d="M 585 542 L 675 542 C 683 551 694 556 707 556 C 731 556 750 536 750 512 C 750 488 731 468 707 468 C 694 468 683 474 675 482 L 585 482 L 649 418 C 649 418 649 418 650 418 C 674 418 693 398 693 374 C 693 350 674 331 650 331 C 626 331 606 350 606 374 C 606 375 606 375 606 375 L 542 439 L 542 349 C 551 341 556 330 556 317 C 556 293 536 274 512 274 C 488 274 468 293 468 317 C 468 330 474 341 482 349 L 482 439 L 418 375 C 418 375 418 375 418 374 C 418 350 399 331 374 331 C 350 331 331 350 331 374 C 331 398 350 418 374 418 C 375 418 375 418 375 418 L 439 482 L 349 482 C 341 474 330 468 317 468 C 293 468 274 488 274 512 C 274 536 293 556 317 556 C 330 556 341 551 349 542 L 439 542 L 375 606 C 375 606 375 606 374 606 C 350 606 331 625 331 650 C 331 674 350 693 374 693 C 398 693 418 674 418 650 C 418 649 418 649 418 649 L 482 585 L 482 675 C 473 683 468 694 468 707 C 468 731 488 750 512 750 C 536 750 556 731 556 707 C 556 694 550 683 542 675 L 542 585 L 606 649 C 606 649 606 649 606 650 C 606 674 625 693 650 693 C 674 693 693 674 693 650 C 693 625 674 606 650 606 C 649 606 649 606 649 606 L 585 542 Z" style="fill: rgb(255, 255, 255);"/>
</svg>