<svg xmlns="http://www.w3.org/2000/svg" xmlns:xlink="http://www.w3.org/1999/xlink" viewBox="0 0 62 62">
    <defs>
        <style>
            use#use_white {
                fill: #fff
            }

            use#use_grey {
                fill: #b3becf
            }

        </style>
    </defs>
    <symbol viewBox="0 0 190 62" id="symbol_shield">
        <g transform="scale(.4697)">
            <path d="M66 130c35.346 0 64-28.654 64-64 0-35.346-28.654-64-64-64C30.654 2 2 30.654 2 66c0 35.346 28.654 64 64 64z" fill="#1C304E" />
            <path fill-rule="evenodd" clip-rule="evenodd" d="M66 41.82c11.779 0 20.974-.899 29.877-5.82a106.59 106.59 0 014.121 29.873c0 35.416-14.283 62.127-33.999 62.127S32 101.289 32 65.873A106.668 106.668 0 0136.121 36c8.904 4.921 18.099 5.82 29.877 5.82z" fill="#3B9946" />
        </g>
    </symbol>
    <symbol viewBox="0 0 190 62" id="symbol_overlay">
        <g transform="scale(.4697)">
            <path fill-rule="evenodd" clip-rule="evenodd" d="M13.749 25.673C5.129 36.825 0 50.814 0 66s5.129 29.174 13.749 40.327a66.53 66.53 0 002.553 3.103C28.4 123.263 46.18 132 66 132s37.6-8.737 49.698-22.57a66.53 66.53 0 002.553-3.103C126.871 95.174 132 81.186 132 66s-5.129-29.174-13.749-40.327a66.038 66.038 0 00-2.553-3.104C103.6 8.736 85.821-.001 66-.001s-37.6 8.737-49.698 22.57a66.038 66.038 0 00-2.553 3.104zm86.513 11.746c3.166-1.344 6.132-2.872 8.86-4.565a52.684 52.684 0 006.174-4.462 61.695 61.695 0 0112.672 35.607h-23.985c-.163-9.501-1.482-18.498-3.721-26.58zm-1.16-3.855c-3.908-12.007-9.92-21.676-17.165-27.497 12.141 3.22 22.82 10.032 30.831 19.228-3.789 3.201-8.41 5.998-13.666 8.269zm28.866 34.435a61.695 61.695 0 01-12.672 35.607 52.677 52.677 0 00-6.174-4.461 64.783 64.783 0 00-8.86-4.565c2.239-8.083 3.558-17.079 3.721-26.58h23.985zm-15.2 38.704c-3.789-3.2-8.41-5.998-13.666-8.269-3.908 12.007-9.92 21.676-17.165 27.498 12.141-3.221 22.82-10.032 30.831-19.229zM99.982 67.999c-.16 9.014-1.396 17.507-3.465 25.111-8.5-3.074-18.219-4.883-28.517-5.091v-20.02h31.982zm-4.605 28.953c-8.078-2.951-17.409-4.722-27.378-4.932v35.867c7.771-.866 15.389-6.768 21.404-17.215 2.32-4.029 4.339-8.644 5.974-13.72zM63.999 67.999v20.02c-10.298.208-20.018 2.017-28.517 5.091-2.069-7.604-3.305-16.097-3.465-25.111h31.982zm0 24.021c-9.969.21-19.3 1.981-27.378 4.932 1.635 5.076 3.654 9.691 5.974 13.72 6.015 10.447 13.633 16.349 21.404 17.215V92.02zm-13.937 33.912c-7.245-5.822-13.257-15.491-17.165-27.498-5.256 2.271-9.877 5.069-13.666 8.269 8.011 9.197 18.69 16.008 30.831 19.229zM22.878 99.145a64.783 64.783 0 018.86-4.565C29.499 86.497 28.18 77.501 28.017 68H4.032a61.71 61.71 0 0012.672 35.607 52.677 52.677 0 016.174-4.461zm-6.174-70.753A61.695 61.695 0 004.032 63.999h23.985c.163-9.501 1.482-18.498 3.721-26.58-3.166-1.344-6.132-2.872-8.86-4.565a52.6 52.6 0 01-6.174-4.462zm18.779 10.496c-2.069 7.604-3.305 16.096-3.465 25.111H64v-20.02c-10.298-.208-20.018-2.017-28.517-5.091zM64 39.978c-9.969-.21-19.3-1.981-27.378-4.932 1.635-5.076 3.654-9.691 5.974-13.72C48.611 10.879 56.229 4.977 64 4.111v35.867zm4 0V4.111c7.771.867 15.389 6.769 21.404 17.215 2.32 4.029 4.339 8.644 5.974 13.72C87.3 37.997 77.969 39.768 68 39.978zm0 4.001c10.299-.208 20.018-2.017 28.517-5.091 2.069 7.604 3.305 16.096 3.465 25.111H68v-20.02zM32.898 33.564c-5.256-2.271-9.877-5.069-13.666-8.269 8.011-9.197 18.69-16.008 30.831-19.228-7.246 5.822-13.257 15.491-17.165 27.497z" fill="inherit" />
        </g>
    </symbol>
    <use xlink:href="#symbol_shield" width="190" height="62" x="0" y="0" />
    <use id="use_white" xlink:href="#symbol_overlay" width="190" height="62" x="0" y="0" />
</svg>
