<?xml version="1.0" encoding="UTF-8"?><svg xmlns="http://www.w3.org/2000/svg" viewBox="0 0 1000 1360">
    <g fill="#069">
        <path d="M560 268H420v50c0 96 47 155 156 197l66 25c131 50 218 168 218 320 0 199-161 360-360 360s-360-161-360-360c0-100 40-189 105-254l17-17-98-98-17 17C56 599 0 722 0 860c0 276 224 500 500 500s500-224 500-500c0-204-117-379-308-451l-66-25c-53-20-66-33-66-66z" />
        <path d="M490 0 288 300h404zm190.04352 647.00738 103.02447-103.02447 34.01151 34.01151-103.02447 103.02447z" />
        <path d="M762 713 648 599l-29 142zm16 123h146v48H778z" />
        <path d="M790 942V778l-122 82zm-109.95988 130.99112 34.01151-34.01151 103.02447 103.02447-34.01151 34.01151z" />
        <path d="m648 1121 114-114-143-28zm-172 17h48v146h-48z" />
        <path d="M418 1150h164l-82-122zm-234.95648-7.99932 103.02447-103.02447 34.01151 34.01151-103.02447 103.02447z" />
        <path d="m238 1007 114 114 29-142zM76 836h146v48H76z" />
        <path d="M210 778v164l122-82zm7-234-34 34 103 103 34-34z" />
        <path d="M352 599 238 713l143 28z" />
    </g>
    <circle cx="500" cy="860" r="160" fill="#900" />
</svg>
