<?xml version="1.0" encoding="utf-8"?>
<!-- Generator: Adobe Illustrator 19.1.0, SVG Export Plug-In . SVG Version: 6.00 Build 0)  -->
<svg xmlns="http://www.w3.org/2000/svg"
     xmlns:xlink="http://www.w3.org/1999/xlink"
     version="1.1"
     fill="rgba(0,0,0,.2)"
	 viewBox="0 0 100 100"
     style="enable-background:new 0 0 100 100;"
     xml:space="preserve">
<g>
	<path d="M53.9,7.4c0,0,7,14.3,5.7,20.2c0,0,18.3,5.9,20.4,15.7C80,43.3,90.1,30.1,53.9,7.4z"/>
	<path d="M46.9,28.8c1.8,3.8,2.6,7.8,3.7,12l-10.4-4c1-6.3-5.2-16-5.2-16L46.9,28.8z"/>
	<path d="M28.4,38.7c1.2,3,2.5,6.9,3.2,10.2l-9.4-2.3c1-6.3-5-14-5-14L28.4,38.7z"/>
	<path d="M48.9,23.4c0,0,42,29.5,44.8,40.9c2.1,8.6-4,16.6-4,16.6S86.4,58.4,5.9,92.6c8.1-9.1,12.6-20.7,11.4-33.2
		     c-0.5-5.1-1.8-10-4-14.4l18.9,10c0,0.3,0,0.6,0.1,0.9c0.7,7.7,0.2,15.1-1.6,22c3.9-8.2,5.7-17.4,4.8-27c-0.5-5.8-2-11.3-4.3-16.4
		     l20.2,13.4c0.1,0.7,0.1,1.3,0.2,2c0.8,8.5,0,16.7-2.2,24.2c4.7-8.8,7.1-18.9,6.1-29.5C54.8,36.9,52.5,29.7,48.9,23.4z"/>
</g>
</svg>