<?xml version="1.0" encoding="UTF-8"?>
<svg width="468.7283" height="369.2667" version="1.1" viewBox="0 0 468.7283 369.2667" xmlns="http://www.w3.org/2000/svg">
<title>Dark Reader mascot logo</title>
<desc>Browser extension for Chrome, Edge, Firefox, Safari, and Thunderbird</desc>
 <defs>
  <linearGradient id="gradient1543" x1="149.3738" x2="148.4455" y1="148.5701" y2="224.6907" gradientUnits="userSpaceOnUse">
   <stop stop-color="#141e24" offset="0"/>
   <stop stop-color="#e96c4c" offset="1"/>
  </linearGradient>
  <linearGradient id="gradient1544" x1="269.2113" x2="270.1425" y1="153.2718" y2="224.9721" gradientUnits="userSpaceOnUse">
   <stop stop-color="#141e24" offset="0"/>
   <stop stop-color="#e96c4c" offset="1"/>
  </linearGradient>
 </defs>
 <g transform="translate(-19.74717 -60.7333)">
  <path d="m186.8351 263.8178c45.718 2.0863 88.4442 16.3808 110.1545 47.1807 15.1121 21.4392 18.9371 48.2869 8.7773 70.7027-14.0741 31.0522-52.6371 48.2988-99.4934 48.2988h-135.2735c-22.9699 0-41.2199-16.5166-48.1346-39.922-4.1247-13.9616-3.5558-29.3509 1.1984-43.7299 4.5523-13.7682 12.1693-25.9912 23.533-36.9336 30.7159-29.5773 84.81-48.0806 139.2383-45.5967z" fill="#141e24"/>
  <path d="m58.4051 303.113c-7.1747 8.5242-13.0629 17.8877-17.6682 27.9039-6.2382 13.5679-10.1946 27.9502-10.0185 42.4976 0.15 12.3911 3.3018 24.6172 8.3223 36.2281 1.6004 3.7013 3.3861 7.3239 5.546 10.7475-3.8611-2.2287-7.1218-5.2142-10.0502-8.4954-8.197-9.1847-13.3494-20.5287-14.5201-32.6427-0.6219-6.4358-0.1122-12.9912 0.9729-19.4582 2.0947-12.4838 6.0697-24.4631 12.9372-34.7143 6.1405-9.1658 14.4377-16.7373 24.4786-22.0665z" fill="#316e7d"/>
  <path d="m160.5305 397.4492c2.6898 2.1956 2.8518 7.3759 5.6376 9.5296 2.5562 1.9761 6.5311 1.545 9.6045-0.9559 2.0757-1.689 3.3892-4.2478 3.8582-7.0869 0.2624-1.5882 0.2504-3.2224-0.1825-4.8158 1.4364 1.4208 2.5315 3.1365 3.349 4.9456 1.1914 2.6364 1.6723 5.5291 3.4542 6.9571 1.4302 1.146 3.5458 1.3466 5.6376 0.9559 2.1952-0.4101 4.2124-1.4253 5.5575-3.147 2.1489-2.7504 2.3966-6.9507 1.126-11.2603 2.4904 2.4395 4.8462 5.0701 6.7562 7.8822 1.201 1.7681 2.1624 3.5906 3.7076 4.6198 2.9679 1.9766 7.2048 1.2336 9.5008-1.8902 1.9396-2.6389 2.0283-6.4842 0.9617-10.5862-2.1851-8.4035-8.8836-16.523-17.5482-21.4203-10.4169-5.8876-22.8872-7.4479-35.7888-7.0692-6.5232 0.1915-12.9887 0.8582-19.0526 2.8579-8.6818 2.8631-16.2373 8.2372-21.7289 15.4717-4.5362 5.9759-7.4375 12.6272-5.6301 18.0165 2.0276 6.0461 8.6664 9.2914 15.7644 6.7562 9.9415-9.2775 20.3878-13.5386 25.0158-9.7607z" fill="#8bbcc7"/>
  <path d="m149.0272 377.9331c4.0327 1.6844 6.8093 5.6831 9.0082 10.1343 1.5285 3.0939 2.7375 6.3465 3.4475 9.7663-3.056 1.2244-5.9345 2.8621-8.5737 4.7632-2.2332 1.6085-4.2563 3.4919-6.6684 4.7631-3.6297 1.9129-8.0226 2.4624-12.4648 2.4582-4.8092-5e-3 -9.4555-0.6475-12.3017-3.3674-2.5283-2.416-3.5041-6.2286-2.8595-9.9542 0.7802-4.51 3.9803-8.4796 7.8917-11.8073 7.3477-6.2515 16.0374-9.4642 22.5207-6.7562z" fill="#316e7d"/>
  <path d="m61.0823 299.2955 15.3846-113.5521c3.0329-22.3858 5.9066-44.1692 13.9853-63.9687 7.3676-18.0565 18.7754-34.0718 34.2958-44.5346 17.7669-11.9773 40.3039-16.0957 63.3078-16.4787 23.584-0.3926 46.8155 3.2611 64.2392 15.1811 12.1928 8.3415 21.142 20.4947 27.5965 34.2072 9.9093 21.0519 13.3213 45.1284 11.1013 69.7563l-11.0517 122.6002c-30.9013 5.1948-62.0894 7.4982-93.3676 7.5686-41.8403 0.0942-83.8284-3.92-125.4912-10.7793z" fill="#141e24"/>
  <g fill="#316e7d">
   <path d="m133.306 72.4959c-7.7007 10.0422-13.5981 21.1625-18.3891 33.3051-8.5487 21.6663-12.9195 46.8769-20.0277 71.4993l-32.6068 112.9493 15.1003-115.1711c3.9056-29.788 11.5901-58.1092 26.5039-78.2514 7.8884-10.6541 17.5506-18.9624 29.4194-24.3312z"/>
   <path d="m210.776 62.5949c-19.2885-0.7009-38.2706 5.1335-52.0895 17.5908-13.2315 11.9277-20.8232 29.533-26.5434 48.079-6.5704 21.3024-9.8899 43.3572-11.1328 65.9014l47.6342 8.5896c9.9623-13.6467 24.0052-21.3798 39.681-21.5148 16.8681-0.1453 31.9853 8.4778 43.0876 23.249l39.3379-14.1928c2.272-20.0999 1.5608-40.0055-3.1781-59.1888-4.1511-16.8041-10.9729-32.6765-22.274-44.6573-13.9801-14.8211-33.7597-23.1016-54.5229-23.8561z"/>
   <path d="m220.6147 281.6661-0.4221 7.8163c-0.1774 3.284-3.0433 5.3924-6.5923 5.6203-3.7401 0.2403-6.7502-1.5707-6.5922-4.4963l0.4222-7.8162c0.2109-3.9051 3.0455-6.5187 6.5922-6.7445 3.741-0.2381 6.7825 2.0959 6.5922 5.6204z"/>
   <path d="m197.8578 281.864-0.4221 7.8162c-0.1774 3.2841-3.0432 5.3925-6.5922 5.6204-3.7401 0.2403-6.7502-1.5707-6.5922-4.4963l0.4221-7.8162c0.2109-3.9051 3.0455-6.5187 6.5922-6.7445 3.7411-0.2381 6.7826 2.0959 6.5922 5.6204z"/>
   <path d="m175.0821 281.0806-0.3937 5.9382c-0.2416 3.6426-3.2797 5.9818-7.0073 6.0296-3.5464 0.0454-6.3755-1.9141-6.1772-4.9056l0.3938-5.9382c0.2589-3.9047 3.0777-6.5042 6.5922-6.7444 3.772-0.2579 6.8259 2.0961 6.5922 5.6204z"/>
   <path d="m242.1463 281.0046-0.3937 5.9382c-0.2416 3.6426-3.2797 5.9818-7.0073 6.0296-3.5464 0.0455-6.3755-1.9141-6.1771-4.9055l0.3937-5.9382c0.2589-3.9048 3.0777-6.5042 6.5922-6.7445 3.7721-0.2578 6.8259 2.0962 6.5922 5.6204z"/>
  </g>
  <path d="m188.4925 168.79c5.7086-2.2902 11.7014-3.4519 17.7369-3.5179 6.5402-0.0714 13.0513 1.1448 19.3084 3.5002 13.6834-17.1577 34.0163-23.4796 53.6051-20.0052 27.6492 4.904 47.8015 26.5123 49.2051 52.4363 1.5148 27.9757-18.4066 52.4544-47.6724 57.4016-19.0267 3.2163-38.963-3.4739-51.5641-18.4853-9.7543-11.62-14.0147-27.1862-9.9056-43.2045-2.4522-1.0863-5.0579-1.6328-7.6997-1.7413-3.5725-0.1467-7.1931 0.5272-10.7012 1.759 2.9667 19.4803-4.173 37.2599-17.5893 49.25-16.882 15.0873-40.6513 19.1814-61.5625 10.5535-18.4867-7.6275-32.0421-24.2525-35.1786-43.9732-2.9516-18.5581 3.8152-37.6171 17.5893-51.0089 13.6056-13.2279 32.6041-19.317 51.0089-15.8304 13.5196 2.5611 25.6946 10.2715 33.4197 22.8661z" fill="#e96c4c" opacity=".2"/>
  <path d="m186.7336 174.0668c6.7215-3.3376 13.9395-5.0887 21.2548-5.2768 7.9975-0.2057 15.9627 1.4592 23.5229 4.7454 12.2082-17.1912 31.5662-23.833 50.1372-20.0044 23.2548 4.7941 40.1403 23.9767 41.835 46.6995 2.0266 27.1734-16.7935 50.723-44.7537 54.4829-16.3848 2.2032-33.4902-3.8075-44.7538-16.5395-10.5129-11.8835-14.681-28.3336-10.0069-45.0692-3.9075-2.0585-8.1572-3.0876-12.4629-3.2076-5.4119-0.1507-10.8346 1.1497-15.978 3.5179 3.8703 19.2713-2.5558 37.2735-15.8303 49.25-14.8931 13.4368-35.8727 17.5834-54.5269 10.5536-17.4071-6.5599-30.2431-21.9762-33.4196-40.4554-2.9759-17.3123 3.0163-35.1734 15.8304-47.4911 12.1365-11.6663 29.1219-16.9729 45.7321-14.0714 13.55 2.3669 25.738 10.1808 33.4197 22.8661z" fill="#e96c4c" opacity=".2"/>
  <g fill="#fff">
   <path d="m276.4095 158.0195c24.215 1.8248 43.1496 22.6893 42.1734 47.6742-0.907 23.2124-19.1479 42.1827-42.1734 44.007-25.6965 2.0359-47.5244-17.1597-49.5078-42.1734-2.2689-28.6133 20.9167-51.8253 49.5078-49.5078z"/>
   <path d="m143.9601 155.4356c26.9413-0.0534 48.5013 22.0758 47.491 49.25-0.9454 25.4296-21.8409 45.7321-47.491 45.7321s-46.5457-20.3025-47.4911-45.7321c-1.0103-27.1742 20.5497-49.3034 47.4911-49.25z"/>
   <path d="m209.7797 177.4175c9.9926-0.0677 19.7927 2.7724 28.5733 8.3507l-3.9344 11.8032c-7.0733-4.8284-15.0677-7.4417-23.2965-7.7259-8.8458-0.3056-17.5899 2.0857-25.579 6.774l-5.6933-9.8359c9.1878-6.0201 19.4235-9.2949 29.9299-9.3661z"/>
  </g>
  <path d="m144.167 167.8835c19.2987 5e-3 35.2231 14.0424 36.9222 31.8874 2.1359 22.4325-16.8843 40.6771-40.2788 38.6005-20.1104-1.7851-35.4372-18.8826-33.5657-38.6005 1.7077-17.991 17.6904-31.9149 36.9223-31.8874z" fill="url(#gradient1543)"/>
  <path d="m276.646 170.8911c18.3528 1.6774 32.5347 17.0246 31.5893 35.0993-0.8637 16.514-14.5184 29.9538-31.5893 31.5894-20.4289 1.9574-37.6191-12.6347-38.6093-31.5894-1.0812-20.696 16.8537-37.2541 38.6093-35.0993z" fill="url(#gradient1544)"/>
  <g fill="#141e24">
   <path d="m161.1069 185.9335c7.3907-0.249 14.3201 2.863 19.6043 8.7937l-11.6694-2.674c-0.0491 9.3672-4.789 16.2365-10.9459 15.8891-5.5176-0.3112-9.4191-6.3319-8.8563-14.2579l-8.9837 3.833c5.4378-7.0515 12.7238-11.3101 20.851-11.5839z" opacity=".1"/>
   <path d="m254.6283 184.8372c7.2022-0.0643 13.8306 3.2357 18.6438 9.322l-10.7879-3.6706c0.5261 8.7599-3.6034 15.4399-9.482 15.4549-5.3961 0.0138-9.484-5.6491-9.2845-13.3698l-10.0637 3.9159c5.4532-7.234 12.803-11.5794 20.9743-11.6524z" opacity=".1"/>
   <path d="m115.9439 225.5996 11.8185-31.1578c1.2491-3.293 3.5262-5.372 6.4464-5.372h42.9763c-5.1326-10.4154-14.2267-17.0373-24.7114-19.3393-14.3379-3.1481-28.8031 1.6005-37.6042 12.8929-5.0957 6.5382-7.6986 14.8429-7.1544 23.2573 0.4627 7.1533 3.18 14.0867 8.2288 19.7189z" opacity=".5"/>
   <path d="m246.6863 225.9931 11.4566-28.2047c1.398-3.4419 3.7419-5.6263 6.7409-5.6175l40.2243 0.1173c-4.2302-10.9026-13.1203-17.8548-23.5934-20.2229-16.0545-3.6303-31.705 3.0883-39.3224 16.8524-6.4558 11.6652-5.1788 25.848 4.494 37.0754z" opacity=".5"/>
  </g>
  <path d="m201.7084 411.7387 55.2012-140.0367c10.5961-26.8804 34.9981-41.9157 65.7315-41.9157h150.137c14.3935 0 19.7934 18.0046 12.3842 37.1526l-52.3434 135.2735c-2.3153 5.9837-7.2625 9.5263-13.5002 9.5263z" fill="#8bbcc7" opacity=".2"/>
  <path d="m212.9765 411.7387 55.2013-140.0367c8.9938-22.816 28.2179-36.1999 52.3946-36.1999h150.137c14.1952 0 20.7157 15.2513 14.4529 31.4368l-52.3434 135.2735c-2.3153 5.9837-7.2625 9.5263-13.5002 9.5263z" fill="#8bbcc7" opacity=".4"/>
  <path d="m224.4081 411.7387 55.2012-140.0367c6.8646-17.4144 21.5464-27.6263 40.0105-27.6263h150.1369c12.5999 0 19.9947 11.0031 15.4056 22.8632l-52.3434 135.2735c-2.3153 5.9837-7.2625 9.5263-13.5002 9.5263z" fill="#fff"/>
  <path d="m283.1683 289.2809c9.0565-22.4845 21.6552-38.0549 39.0578-38.1052l149.4359-0.4316c11.4905-0.0331 17.9239 10.5786 13.5003 21.9105l-56.1539 143.8472c-4.5535 11.6647-20.6066 13.4119-40.4733 13.4119h-231.3621c-2.6379 0-4.9421-0.7516-6.4323-2.3664-1.8497-2.0044-2.2898-5.1761-2.2592-8.4484 0.0299-3.1832 0.5004-6.2749 2.2546-8.4546 1.7063-2.1201 4.4733-3.2372 7.6376-3.2372h77.2144z" fill="#141e24"/>
  <path d="m384.3032 336.2227c4.0773 5.8445 10.8534 7.9564 18.4013 6.2858-0.4472 2.1505-1.4377 4.0874-2.6054 5.902-5.1741 8.0397-13.0925 13.3432-22.0809 14.1194-5.8901 0.5086-11.7676-0.902-16-4.5683-6.8369-5.9223-8.718-16.1636-5.0658-25.4394 3.3649-8.5462 11.1959-14.7145 20.9283-17.3913 2.476-0.681 5.0324-1.0943 7.6345-0.83-4.8686 7.4255-5.7331 15.441-1.212 21.9218z" fill="#316e7d"/>
  <path d="m380.3595 338.7719c3.3318 4.9407 8.7418 7.7868 15.1724 8.0027-4.3379 6.5224-10.3733 10.9274-17.0551 11.8025-5.1124 0.6696-10.243-0.7567-13.8357-4.1034-5.3272-4.9626-6.5943-13.1579-3.831-20.646 2.7604-7.4804 9.3298-12.8871 18.0667-14.6096-2.6016 6.9919-2.2717 13.9865 1.4827 19.5538z" fill="#8bbcc7"/>
 </g>
</svg>
