<?xml version="1.0" encoding="UTF-8"?>
<!DOCTYPE svg PUBLIC "-//W3C//DTD SVG 1.1//EN" "http://www.w3.org/Graphics/SVG/1.1/DTD/svg11.dtd">
<!-- Creator: CorelDRAW X7 -->
<svg xmlns="http://www.w3.org/2000/svg" 
     version="1.1" 
     viewBox="0 0 15500 2500"
     xmlns:xlink="http://www.w3.org/1999/xlink">

     <defs>
         <style type="text/css">
             <![CDATA[
             .TEXT {
                 fill: rgba(0,0,0,.2);
                 fill-rule: nonzero
             }
             ]]>
         </style>
     </defs>
    
    <!-- text:knower --><path class="TEXT" d="M41 102l660 0 0 817 90 0c33,0 64,-5 92,-16 28,-10 55,-31 78,-60l732 -853 498 390 -718 781 871 902 -476 413 -835 -866c-42,-42 -78,-74 -110,-96 -31,-23 -72,-34 -123,-34l-99 0 0 907 -660 0 0 -2285zm13908 534l-305 0 0 -534 705 0 90 211c116,-90 225,-155 327,-195 102,-41 208,-61 319,-61 51,0 106,2 166,7 60,4 120,17 180,38l-99 530c-45,-12 -84,-20 -117,-23 -33,-3 -75,-4 -126,-4 -113,0 -211,20 -291,60 -81,41 -144,82 -189,124l0 1598 -660 0 0 -1751zm-1178 359c-3,-152 -40,-263 -112,-332 -72,-69 -160,-103 -265,-103 -123,0 -228,41 -316,123 -89,82 -137,187 -146,312l839 0zm687 1261c-120,51 -262,98 -429,142 -166,43 -349,65 -549,65 -231,0 -426,-30 -586,-90 -160,-60 -290,-144 -391,-251 -100,-108 -173,-236 -217,-384 -45,-148 -68,-311 -68,-487 0,-159 26,-312 77,-460 50,-148 127,-279 229,-393 101,-113 225,-204 372,-271 147,-68 317,-101 512,-101 182,0 339,28 471,85 132,57 241,138 328,245 86,106 151,235 193,386 42,151 62,319 62,505l-188 179 -1351 0c6,141 62,257 168,348 106,91 255,137 447,137 114,0 231,-14 352,-41 121,-27 252,-65 393,-116l175 502zm-5775 -2091l665 -77 179 1630c3,45 14,81 34,108 19,26 43,47 69,60 27,14 56,23 86,27 29,5 58,7 85,7 39,0 78,-5 117,-14 39,-9 73,-22 103,-40l0 -1764 637 0 0 1764c27,18 61,31 101,40 41,9 80,14 119,14 21,0 46,-2 76,-7 30,-4 58,-13 83,-27 26,-13 48,-32 68,-56 19,-24 32,-57 38,-99l184 -1643 660 77 -198 1638c-12,90 -36,175 -71,256 -37,81 -87,151 -151,211 -64,60 -146,107 -245,141 -98,35 -217,52 -354,52 -114,0 -225,-14 -334,-41 -110,-26 -209,-65 -299,-116 -87,48 -185,86 -294,114 -109,29 -221,43 -334,43 -138,0 -256,-16 -355,-47 -99,-32 -181,-76 -247,-135 -66,-58 -117,-128 -152,-209 -36,-80 -60,-170 -72,-269l-198 -1638zm-1419 1759c168,0 294,-57 379,-173 86,-115 128,-285 128,-509 0,-452 -169,-678 -507,-678 -168,0 -295,57 -384,171 -88,114 -132,283 -132,507 0,224 44,394 132,509 89,116 216,173 384,173zm0 539c-203,0 -380,-32 -530,-94 -149,-63 -273,-150 -372,-261 -99,-110 -172,-240 -220,-388 -48,-148 -72,-307 -72,-478 0,-171 26,-330 79,-478 52,-148 128,-277 229,-386 100,-109 224,-195 372,-258 148,-63 320,-94 514,-94 207,0 385,31 534,94 150,63 273,149 368,258 96,109 167,238 214,386 46,148 69,307 69,478 0,171 -25,330 -74,478 -49,148 -123,278 -222,388 -99,111 -222,198 -370,261 -149,62 -321,94 -519,94zm-3679 -1805l-161 -426 561 -256 130 234c105,-51 213,-95 325,-131 113,-35 243,-53 393,-53 168,0 309,23 424,69 115,47 208,111 279,193 70,83 120,179 150,290 30,110 45,229 45,354l0 1455 -660 0 0 -1405c0,-147 -28,-249 -85,-308 -57,-58 -145,-87 -265,-87 -93,0 -177,11 -253,33 -77,23 -151,50 -223,83l0 1684 -660 0 0 -1729z" />
</svg>