<svg xmlns="http://www.w3.org/2000/svg" width="100px" height="100px" viewBox="0 0 100 100" xmlns:xlink="http://www.w3.org/1999/xlink" xmlns:xodm="http://www.corel.com/coreldraw/odm/2003">
    <defs>
        <style type="text/css">
            <![CDATA[
            .str0 {
                stroke: black;
                stroke-width: 0.69;
                stroke-miterlimit: 22.9256
            }

            .fil3 {
                fill: none;
                fill-rule: nonzero
            }

            .fil2 {
                fill: black;
                fill-rule: nonzero
            }

            .fil0 {
                fill: #51B848;
                fill-rule: nonzero
            }

            .fil1 {
                fill: url(#id0);
                fill-rule: nonzero
            }

            ]]>
        </style>
        <linearGradient id="id0" gradientUnits="userSpaceOnUse" x1="-0.19" y1="37.7" x2="99.8" y2="37.7">
            <stop offset="0" style="stop-opacity:1; stop-color:#169B48" />
            <stop offset="1" style="stop-opacity:1; stop-color:#51B848" />
        </linearGradient>
    </defs>
    <g>
        <g>
            <rect class="fil0" width="100" height="100" />
            <path class="fil1" d="M0 0l100 0 0 25.38c-8.21,14.88 -30.86,12.15 -30.86,12.15 -61.44,1.41 -69.14,39.58 -69.14,39.58l0 -77.11z" />
            <path class="fil2" d="M61.99 91.12c0,0 10.18,-3.35 14.04,-3.4 0,0 12.44,-4.47 18.02,-0.6 2.09,0.93 4.12,2.02 5.95,3.53l0 9.35 -100 0 0 -5.25c0,0 19.66,-8.29 29.39,-1.28 0,0 0.93,-0.22 1.92,-0.86 0,0 4.99,-4.44 9.94,-3.52 4.95,0.92 11.96,3.07 11.96,3.07 0,0 4.73,-2.22 8.7,-1.69l0.08 0.65z" />
            <g>
                <path id="path333-2-3" class="fil2" d="M39.27 2.78c-0.01,-0.02 -0.01,-0.05 -0.02,-0.07 -0.27,-0.76 -0.81,-0.28 -0.81,-0.28 -0.12,-0.35 -0.9,-0.1 -0.9,-0.1 -0.36,-0.47 -0.89,0.1 -0.89,0.1 -0.23,-0.33 -0.73,0 -0.73,0 -0.72,0.4 -0.37,1.4 -0.37,1.4 -0.71,0.12 -0.4,1.73 -0.4,1.73 -0.15,0.58 -0.09,0.78 -0.09,0.78 0.02,0.75 0.49,1.05 -0.17,3.08 -0.66,2.02 -0.84,5.06 -0.82,5.97 0.01,0.91 0.06,2.39 0.06,2.39l3.45 5.67 -0.18 1.27c0.3,0.26 3.59,5.94 3.59,5.94l0.13 7.05 0.03 2.54c0,0 -0.06,2.62 -0.1,3.19 -0.03,0.58 -0.3,2.39 -0.3,2.39 -0.78,2.82 -0.15,2.75 -0.15,2.75 0.95,-0.02 -0.17,1.32 -0.17,1.32l-7.63 10.89c-0.1,0.14 -2.07,3.07 -2.56,3.93 -0.48,0.85 -2.24,4.05 -2.24,4.05l-1.54 3.23c0,0 -1.55,3.82 -1.5,4 0.05,0.17 -0.43,1.51 -0.43,1.51l-2.4 5.45c-0.37,0.64 -0.26,2.13 -0.26,2.13 -0.16,0.39 -1.82,1.79 -1.82,1.79 -0.01,0.69 -0.42,1.24 -0.42,1.24l-1.01 0.97c-0.69,1.06 -3.22,1.14 -4.08,1.21 -0.85,0.06 -1.34,1.26 -1.34,1.26 0.17,1.6 0.77,1.27 0.77,1.27l11.99 0.5 0.07 0.01c0,0 0.09,-0.67 -0.04,-0.96 -0.13,-0.29 0.07,-1.29 0.07,-1.29 0,0 1.15,-2.62 1.3,-3.05 0.16,-0.43 0.83,-2.92 0.83,-2.92l1.05 -2.06 1.13 -2.36 0.5 -1.27 0.33 -0.67c0.22,-0.81 2.94,-4.73 3.05,-5.14 0.1,-0.4 2.45,-4.14 2.45,-4.14 0.38,-0.93 3.52,-4.71 3.52,-4.71 0.26,-0.62 3.74,-3.92 3.74,-3.92 0,0 3.45,-3.47 3.75,-3.7 0.3,-0.24 1.13,-0.16 1.13,-0.16 1.14,-0.37 5.09,6.2 5.09,6.2 0,0 2.98,5.8 3.26,6.36 0.28,0.56 0.46,1.84 0.46,1.84l0.44 1.35c-0.14,0.29 0.23,1.03 0.23,1.03l-0.08 1.06c0,0 0.67,5.08 0.47,5.59 -0.2,0.51 0.77,5.85 0.77,5.85 -0.53,1.76 -0.36,4.76 -0.36,4.76l-0.68 0.25 0.26 0.29c-0.22,1.03 0.14,0.79 0.14,0.79 0,0 14.16,-1.75 14.61,-1.81 0.44,-0.05 0.67,-0.71 0.67,-0.71 0,0 0,-1.12 -0.15,-1.52 -0.16,-0.39 -0.97,-0.9 -1.91,-0.87 -0.93,0.03 -2.8,-0.47 -2.8,-0.47 -0.67,-0.04 -0.93,-0.28 -1.71,-0.66 -0.78,-0.39 -1.89,-2.52 -2.11,-2.94 -0.22,-0.42 -0.42,-4.67 -0.42,-4.67 -0.02,-0.35 -0.28,-4.55 -0.28,-4.55 0,0 -0.14,-1.5 -0.15,-2.14 -0.01,-0.64 0.21,-1.74 0.21,-1.74l-0.23 -3.18c-0.24,-0.16 -2.03,-6.34 -2.03,-6.34 -0.27,-1.5 -2.54,-5.92 -2.54,-5.92 -0.06,-0.38 -0.84,-1.62 -0.84,-1.62 0,-0.16 -0.76,-1.88 -0.76,-1.88 0.06,-0.18 -0.65,-1.63 -0.65,-1.63 0,0 0.46,-1.3 0.3,-1.3 -0.16,0 -0.34,-0.88 -0.34,-0.88l0.92 -7.74 0.5 -3.76c0,0 0.33,-0.99 0.67,-1 0.34,0 1.85,-0.69 1.85,-0.69 0,0 1.07,-0.41 1.22,-0.5 0.14,-0.08 1.46,-0.29 1.93,-0.38 0.47,-0.09 0.41,-1.43 0.41,-1.43 4.78,-1.14 7.52,-2.42 7.52,-2.42 0,0 0.98,-2.27 1.16,-2.33 0.17,-0.05 1.1,-2.2 1.31,-2.85 0.21,-0.64 1.31,-4.02 1.31,-4.02l0.32 -0.64c0,0 0.38,-0.84 0.6,-1.02 0.22,-0.18 0.57,-1.29 0.57,-1.29 0.17,-0.29 0.04,-0.8 0.04,-0.8 0.11,-1.17 -0.72,-1.17 -0.72,-1.17 0.01,-0.63 -0.6,-0.37 -0.67,-0.62 -0.07,-0.26 -0.28,-0.33 -0.38,-0.14 -0.11,0.18 -0.56,0.03 -0.56,0.03 -0.56,-0.36 -0.88,0.02 -0.88,0.02 0,0 -1.2,1.73 -0.84,2.01 0.35,0.27 0.27,1.69 0.27,1.69 -0.14,1.45 -1.75,4.53 -1.75,4.53l-1.07 1.53c-0.51,0.98 -2.84,2.99 -2.84,2.99 -0.3,-0.15 -2.08,-0.01 -2.08,-0.01 0,0 -1.41,0.18 -1.72,0.18 -0.3,0.01 -1.62,0.17 -1.62,0.17 0,0 -0.69,0.2 -0.91,0.08 -0.21,-0.12 -0.92,-0.19 -1.36,-0.36 -0.44,-0.16 -1.65,-0.33 -1.65,-0.33l-0.95 0.08c-1.04,-0.57 -1.53,0.07 -1.53,0.07l-0.55 0.11c0,0 -0.29,-0.01 -0.58,-0.03 -0.3,-0.01 -0.25,-0.55 -0.25,-0.55l-0.92 -0.4 -0.3 -0.42c-0.09,-0.89 1.12,-3.63 1.12,-3.63 0.5,-0.01 0.71,-0.3 0.66,-0.52 -0.05,-0.23 0.1,-0.58 0.1,-0.58 0.47,-1.06 0.08,-1.13 0.08,-1.13l-0.1 -0.39c0.21,-0.33 0.12,-2.01 0.12,-2.01 -0.23,-2.26 -3.1,-3.23 -5.14,-2.58 -2.03,0.64 -2.1,3.77 -2.1,3.77 0,0 0.17,0.18 -0.01,0.09 -0.17,-0.1 -0.43,0.49 -0.43,0.49 -0.21,0.19 -0.03,1.7 -0.03,1.7 0.37,0.57 0.69,0.28 0.69,0.28l0.3 1.81c0,0 -0.31,1.7 -0.64,2.17 -0.32,0.48 -0.92,0.49 -0.92,0.49 -0.43,-1.29 -2.66,-1.95 -2.66,-1.95l-1.16 -0.54c-0.07,-0.25 -0.5,-0.43 -0.5,-0.43 -0.61,-0.06 -0.74,-0.14 -1.23,-1.1 -0.49,-0.97 -1.01,-1.02 -1.01,-1.02l-0.67 -0.91 -0.29 -0.08c0.06,-0.19 -1.35,-1.71 -1.35,-1.71 -0.54,-0.19 -0.7,-1.01 -0.7,-1.01 0.12,-0.85 -0.66,-4.41 -0.66,-4.41l-0.07 -1.39c0,0 -0.04,-1.7 0.11,-2.23 0.16,-0.52 0.24,-2.59 0.24,-2.59l0.27 -0.61c0,0 0.21,-0.45 0.61,-0.73 0.41,-0.27 0.69,-0.64 0.77,-0.92 0.07,-0.28 -0.09,-1.04 -0.09,-1.04l-0.24 -0.71 0.02 0.08zm0 0l0 0 0 0z" />
            </g>
        </g>
    </g>
</svg>