<?xml version="1.0" encoding="UTF-8"?>
<!DOCTYPE svg PUBLIC "-//W3C//DTD SVG 1.1//EN" "http://www.w3.org/Graphics/SVG/1.1/DTD/svg11.dtd">
<svg xmlns="http://www.w3.org/2000/svg" xml:space="preserve" width="100px" height="100px" version="1.1" style="shape-rendering:geometricPrecision; text-rendering:geometricPrecision; image-rendering:optimizeQuality; fill-rule:evenodd; clip-rule:evenodd"
viewBox="0 0 100 100"
 xmlns:xlink="http://www.w3.org/1999/xlink"
 xmlns:xodm="http://www.corel.com/coreldraw/odm/2003">
  <path fill="#900" d="M10 0l80 0c5.51,0 10,4.49 10,10l0 80c0,5.51 -4.49,10 -10,10l-80 0c-5.51,0 -10,-4.49 -10,-10l0 -80c0,-5.51 4.49,-10 10,-10z"/>
  <path fill="#FFF" d="M9.43 60.03l2.67 -1.11c0.16,3.75 0.48,6.49 0.97,8.26 0.48,1.76 1.14,2.64 1.97,2.64 0.88,0 1.54,-0.78 1.98,-2.35 0.45,-1.56 0.67,-3.39 0.67,-5.49 0,-1.35 -0.09,-2.49 -0.28,-3.45 -0.19,-0.94 -0.51,-1.76 -0.98,-2.45 -0.32,-0.48 -1.04,-1.3 -2.18,-2.5 -1.45,-1.54 -2.48,-3.42 -3.07,-5.66 -0.82,-3.15 -1.24,-6.98 -1.24,-11.5 0,-2.91 0.2,-5.64 0.59,-8.17 0.39,-2.54 0.95,-4.46 1.68,-5.79 0.73,-1.32 1.61,-1.99 2.65,-1.99 1.7,0 2.97,1.58 3.82,4.75 0.86,3.17 1.31,7.39 1.35,12.68l-2.74 0.4c-0.11,-2.94 -0.36,-5.05 -0.74,-6.34 -0.39,-1.29 -0.96,-1.93 -1.72,-1.93 -0.79,0 -1.4,0.68 -1.85,2.06 -0.28,0.89 -0.43,2.07 -0.43,3.56 0,1.35 0.14,2.51 0.41,3.46 0.34,1.23 1.17,2.51 2.5,3.83 1.33,1.32 2.31,2.7 2.94,4.1 0.63,1.42 1.13,3.35 1.49,5.8 0.36,2.45 0.54,5.48 0.54,9.07 0,3.27 -0.22,6.33 -0.65,9.18 -0.43,2.85 -1.04,4.98 -1.82,6.36 -0.79,1.39 -1.77,2.08 -2.95,2.08 -1.71,0 -3.02,-1.66 -3.94,-4.99 -0.91,-3.31 -1.46,-8.16 -1.64,-14.51zm21.98 -2.55l2.64 3.43c-0.4,6.27 -1.08,10.93 -2.03,13.98 -0.94,3.03 -2.14,4.56 -3.59,4.56 -1.8,0 -3.27,-2.59 -4.43,-7.76 -1.16,-5.17 -1.74,-12.24 -1.74,-21.22 0,-9.49 0.58,-16.86 1.75,-22.12 1.16,-5.25 2.69,-7.88 4.58,-7.88 1.66,0 3,2.07 4.04,6.2 0.61,2.44 1.07,5.94 1.38,10.52l-2.7 2.7c-0.16,-2.94 -0.49,-5.28 -1,-6.99 -0.51,-1.71 -1.13,-2.56 -1.85,-2.56 -1.01,0 -1.82,1.51 -2.44,4.55 -0.63,3.03 -0.94,7.93 -0.94,14.73 0,7.19 0.31,12.32 0.92,15.37 0.62,3.06 1.42,4.59 2.4,4.59 0.73,0 1.36,-0.97 1.88,-2.92 0.52,-1.95 0.9,-5 1.13,-9.18zm4.99 21.01l0 -56.98 2.74 0 0 22.44 5.32 0 0 -22.44 2.74 0 0 56.98 -2.74 0 0 -24.91 -5.32 0 0 24.91 -2.74 0zm13.64 0l0 -56.98 10.01 0 0 9.63 -7.27 0 0 12.65 6.76 0 0 9.63 -6.76 0 0 15.44 7.54 0 0 9.63 -10.28 0zm12.56 0l0 -56.98 4.11 0 2.42 38.86 2.4 -38.86 4.11 0 0 56.98 -2.53 0 -0.01 -44.86 -2.67 44.86 -2.63 0 -2.65 -44.86 -0.01 44.86 -2.54 0zm27.97 0l-2.95 0 -1.17 -12.97 -5.43 0 -1.12 12.97 -2.9 0 5.25 -56.98 2.9 0 5.42 56.98zm-5.01 -22.6l-1.88 -21.09 -1.83 21.09 3.71 0z"/>
</svg>