<?xml version="1.0" encoding="utf-8"?>
<svg viewBox="0.015 -0.0167 89.4699 44.4334" width="89.4699" height="44.4334" xmlns="http://www.w3.org/2000/svg">
  <g mask="url(#mask1_973_152)" style="" transform="matrix(0.9999999999999999, 0, 0, 0.9999999999999999, 0.015047000945287436, -0.01669700096097415)">
    <path d="M39.378 25.6404C39.378 25.6404 35.7666 30.8132 29.5424 29.7508C29.5424 29.7508 33.3977 27.6258 32.6077 25.7324C31.8178 23.839 29.3563 23.562 25.501 23.1465C25.501 23.1465 29.217 19.5902 35.0234 20.6526C35.0234 20.6526 33.8156 18.1587 31.9581 16.9113C31.9581 16.9113 35.4647 16.5878 39.378 20.5596C39.378 20.5596 38.6002 11.6 29.1245 10.9065C19.6488 10.214 17.103 16.6646 12.8674 16.9102C12.8674 16.9102 16.9546 18.9422 20.6706 17.6492C20.6706 17.6492 16.7685 21.7596 11.0089 20.8821C5.24924 20.0046 3.25142 20.1178 0 23.1425C0 23.1425 3.04503 21.8637 8.54641 25.7779C14.2685 29.8488 19.7251 28.3577 20.5934 28.0818C19.9549 28.3062 16.9668 29.5132 15.8596 32.8168C15.8596 32.8168 17.2738 30.7708 22.8037 32.3478C29.2038 34.1725 35.604 35.2915 39.378 25.6384V25.6404Z" fill="#FF0000"/>
    <path d="M89.4699 22.2177C88.5142 21.1168 87.526 20.0473 86.5032 19.0161C74.868 7.23404 59.1355 7.527e-07 41.817 0C39.2621 -1.11038e-07 36.7437 0.162755 34.267 0.468049C33.7312 0.534769 33.1964 0.609576 32.6626 0.688426C33.2584 2.62835 33.7759 4.60568 34.2121 6.61638C34.5974 8.39759 35.79 9.88059 37.3964 10.756C41.4683 12.975 44.2307 17.2744 44.2307 22.2167C44.2307 27.159 41.449 31.4897 37.3527 33.7016C35.728 34.579 34.5354 36.0782 34.1267 37.8706C33.6458 39.9823 33.0266 42.5561 32.6616 43.7449C35.6528 44.1958 38.709 44.4334 41.816 44.4334C60.6535 44.4334 77.6141 35.8781 89.4689 22.2177H89.4699ZM56.8337 21.692C56.8337 21.5475 56.8398 21.4039 56.849 21.2624C56.852 21.2169 56.8561 21.1724 56.8602 21.1269C56.8683 21.0289 56.8785 20.9308 56.8917 20.8338C56.8978 20.7842 56.9049 20.7347 56.912 20.6862C56.9273 20.5841 56.9466 20.484 56.9669 20.3829C56.974 20.3455 56.9801 20.3081 56.9883 20.2707C57.0167 20.1423 57.0493 20.0159 57.0849 19.8916C57.1001 19.839 57.1164 19.7885 57.1326 19.7369C57.157 19.6591 57.1825 19.5812 57.2089 19.5054C57.2292 19.4488 57.2496 19.3922 57.2709 19.3366C57.2994 19.2628 57.3299 19.191 57.3604 19.1193C57.3828 19.0677 57.4041 19.0151 57.4275 18.9636C57.4793 18.8514 57.5332 18.7412 57.5912 18.633C57.6166 18.5845 57.6451 18.538 57.6715 18.4905C57.7101 18.4217 57.7498 18.354 57.7904 18.2873C57.824 18.2327 57.8586 18.1781 57.8942 18.1245C57.9247 18.079 57.9552 18.0335 57.9857 17.9881C58.0223 17.9355 58.0599 17.8829 58.0975 17.8314C58.1321 17.7839 58.1687 17.7384 58.2042 17.6919C58.2419 17.6433 58.2795 17.5948 58.3191 17.5483C58.3588 17.5008 58.3995 17.4553 58.4401 17.4088C58.4788 17.3643 58.5174 17.3198 58.557 17.2774C58.6028 17.2289 58.6496 17.1824 58.6963 17.1349C58.7736 17.057 58.8519 16.9822 58.9322 16.9084C60.0221 15.9167 61.4506 15.3132 63.0163 15.3132C65.188 15.3132 67.1004 16.4687 68.2025 18.2185C68.8329 19.2183 69.2009 20.4102 69.2009 21.694C69.2009 24.0151 68.0002 26.045 66.2047 27.162C66.2057 27.161 66.2077 27.16 66.2088 27.159C66.103 27.2247 65.9952 27.2874 65.8854 27.347C65.859 27.3612 65.8326 27.3753 65.8061 27.3895C65.7187 27.435 65.6313 27.4784 65.5418 27.5199C65.5133 27.533 65.4849 27.5472 65.4554 27.5603C65.3456 27.6088 65.2337 27.6543 65.1209 27.6968C65.0894 27.7089 65.0568 27.719 65.0253 27.7302C64.9399 27.7605 64.8525 27.7898 64.765 27.8161C64.7244 27.8282 64.6827 27.8403 64.641 27.8525C64.5475 27.8788 64.4539 27.902 64.3584 27.9243C64.3309 27.9303 64.3035 27.9384 64.276 27.9435C64.156 27.9687 64.034 27.991 63.911 28.0092C63.8754 28.0142 63.8398 28.0183 63.8042 28.0233C63.7087 28.0354 63.6131 28.0466 63.5175 28.0536C63.4799 28.0567 63.4423 28.0597 63.4047 28.0627C63.2756 28.0708 63.1464 28.0769 63.0153 28.0769C59.6022 28.0769 56.8327 25.2211 56.8327 21.6961L56.8337 21.692Z" fill="#FF0000"/>
  </g>
</svg>