<?xml version="1.0" encoding="UTF-8"?> <svg xmlns="http://www.w3.org/2000/svg" width="280" height="74" viewBox="0 0 280 74" fill="none"><g clip-path="url(#clip0_973_152)"><mask id="mask0_973_152" style="mask-type:luminance" maskUnits="userSpaceOnUse" x="0" y="0" width="90" height="45"><path d="M89.4697 44.4334V0L-0.000144958 0V44.4334L89.4697 44.4334Z" fill="white"></path></mask><g mask="url(#mask0_973_152)"><path d="M39.378 25.6404C39.378 25.6404 35.7666 30.8132 29.5424 29.7508C29.5424 29.7508 33.3977 27.6258 32.6077 25.7324C31.8178 23.839 29.3563 23.562 25.501 23.1465C25.501 23.1465 29.217 19.5902 35.0234 20.6526C35.0234 20.6526 33.8156 18.1587 31.9581 16.9113C31.9581 16.9113 35.4647 16.5878 39.378 20.5596C39.378 20.5596 38.6002 11.6 29.1245 10.9065C19.6488 10.214 17.103 16.6646 12.8674 16.9102C12.8674 16.9102 16.9546 18.9422 20.6706 17.6492C20.6706 17.6492 16.7685 21.7596 11.0089 20.8821C5.24924 20.0046 3.25142 20.1178 0 23.1425C0 23.1425 3.04503 21.8637 8.54641 25.7779C14.2685 29.8488 19.7251 28.3577 20.5934 28.0818C19.9549 28.3062 16.9668 29.5132 15.8596 32.8168C15.8596 32.8168 17.2738 30.7708 22.8037 32.3478C29.2038 34.1725 35.604 35.2915 39.378 25.6384V25.6404Z" fill="#FF0000"></path><path d="M89.4699 22.2177C88.5142 21.1168 87.526 20.0473 86.5032 19.0161C74.868 7.23404 59.1355 7.527e-07 41.817 0C39.2621 -1.11038e-07 36.7437 0.162755 34.267 0.468049C33.7312 0.534769 33.1964 0.609576 32.6626 0.688426C33.2584 2.62835 33.7759 4.60568 34.2121 6.61638C34.5974 8.39759 35.79 9.88059 37.3964 10.756C41.4683 12.975 44.2307 17.2744 44.2307 22.2167C44.2307 27.159 41.449 31.4897 37.3527 33.7016C35.728 34.579 34.5354 36.0782 34.1267 37.8706C33.6458 39.9823 33.0266 42.5561 32.6616 43.7449C35.6528 44.1958 38.709 44.4334 41.816 44.4334C60.6535 44.4334 77.6141 35.8781 89.4689 22.2177H89.4699ZM56.8337 21.692C56.8337 21.5475 56.8398 21.4039 56.849 21.2624C56.852 21.2169 56.8561 21.1724 56.8602 21.1269C56.8683 21.0289 56.8785 20.9308 56.8917 20.8338C56.8978 20.7842 56.9049 20.7347 56.912 20.6862C56.9273 20.5841 56.9466 20.484 56.9669 20.3829C56.974 20.3455 56.9801 20.3081 56.9883 20.2707C57.0167 20.1423 57.0493 20.0159 57.0849 19.8916C57.1001 19.839 57.1164 19.7885 57.1326 19.7369C57.157 19.6591 57.1825 19.5812 57.2089 19.5054C57.2292 19.4488 57.2496 19.3922 57.2709 19.3366C57.2994 19.2628 57.3299 19.191 57.3604 19.1193C57.3828 19.0677 57.4041 19.0151 57.4275 18.9636C57.4793 18.8514 57.5332 18.7412 57.5912 18.633C57.6166 18.5845 57.6451 18.538 57.6715 18.4905C57.7101 18.4217 57.7498 18.354 57.7904 18.2873C57.824 18.2327 57.8586 18.1781 57.8942 18.1245C57.9247 18.079 57.9552 18.0335 57.9857 17.9881C58.0223 17.9355 58.0599 17.8829 58.0975 17.8314C58.1321 17.7839 58.1687 17.7384 58.2042 17.6919C58.2419 17.6433 58.2795 17.5948 58.3191 17.5483C58.3588 17.5008 58.3995 17.4553 58.4401 17.4088C58.4788 17.3643 58.5174 17.3198 58.557 17.2774C58.6028 17.2289 58.6496 17.1824 58.6963 17.1349C58.7736 17.057 58.8519 16.9822 58.9322 16.9084C60.0221 15.9167 61.4506 15.3132 63.0163 15.3132C65.188 15.3132 67.1004 16.4687 68.2025 18.2185C68.8329 19.2183 69.2009 20.4102 69.2009 21.694C69.2009 24.0151 68.0002 26.045 66.2047 27.162C66.2057 27.161 66.2077 27.16 66.2088 27.159C66.103 27.2247 65.9952 27.2874 65.8854 27.347C65.859 27.3612 65.8326 27.3753 65.8061 27.3895C65.7187 27.435 65.6313 27.4784 65.5418 27.5199C65.5133 27.533 65.4849 27.5472 65.4554 27.5603C65.3456 27.6088 65.2337 27.6543 65.1209 27.6968C65.0894 27.7089 65.0568 27.719 65.0253 27.7302C64.9399 27.7605 64.8525 27.7898 64.765 27.8161C64.7244 27.8282 64.6827 27.8403 64.641 27.8525C64.5475 27.8788 64.4539 27.902 64.3584 27.9243C64.3309 27.9303 64.3035 27.9384 64.276 27.9435C64.156 27.9687 64.034 27.991 63.911 28.0092C63.8754 28.0142 63.8398 28.0183 63.8042 28.0233C63.7087 28.0354 63.6131 28.0466 63.5175 28.0536C63.4799 28.0567 63.4423 28.0597 63.4047 28.0627C63.2756 28.0708 63.1464 28.0769 63.0153 28.0769C59.6022 28.0769 56.8327 25.2211 56.8327 21.6961L56.8337 21.692Z" fill="#FF0000"></path></g><mask id="mask1_973_152" style="mask-type:luminance" maskUnits="userSpaceOnUse" x="0" y="0" width="90" height="45"><path d="M89.4697 44.4334V0L-0.000144958 0V44.4334L89.4697 44.4334Z" fill="white"></path></mask><g mask="url(#mask1_973_152)"><path d="M39.378 25.6404C39.378 25.6404 35.7666 30.8132 29.5424 29.7508C29.5424 29.7508 33.3977 27.6258 32.6077 25.7324C31.8178 23.839 29.3563 23.562 25.501 23.1465C25.501 23.1465 29.217 19.5902 35.0234 20.6526C35.0234 20.6526 33.8156 18.1587 31.9581 16.9113C31.9581 16.9113 35.4647 16.5878 39.378 20.5596C39.378 20.5596 38.6002 11.6 29.1245 10.9065C19.6488 10.214 17.103 16.6646 12.8674 16.9102C12.8674 16.9102 16.9546 18.9422 20.6706 17.6492C20.6706 17.6492 16.7685 21.7596 11.0089 20.8821C5.24924 20.0046 3.25142 20.1178 0 23.1425C0 23.1425 3.04503 21.8637 8.54641 25.7779C14.2685 29.8488 19.7251 28.3577 20.5934 28.0818C19.9549 28.3062 16.9668 29.5132 15.8596 32.8168C15.8596 32.8168 17.2738 30.7708 22.8037 32.3478C29.2038 34.1725 35.604 35.2915 39.378 25.6384V25.6404Z" fill="#FF0000"></path><path d="M89.4699 22.2177C88.5142 21.1168 87.526 20.0473 86.5032 19.0161C74.868 7.23404 59.1355 7.527e-07 41.817 0C39.2621 -1.11038e-07 36.7437 0.162755 34.267 0.468049C33.7312 0.534769 33.1964 0.609576 32.6626 0.688426C33.2584 2.62835 33.7759 4.60568 34.2121 6.61638C34.5974 8.39759 35.79 9.88059 37.3964 10.756C41.4683 12.975 44.2307 17.2744 44.2307 22.2167C44.2307 27.159 41.449 31.4897 37.3527 33.7016C35.728 34.579 34.5354 36.0782 34.1267 37.8706C33.6458 39.9823 33.0266 42.5561 32.6616 43.7449C35.6528 44.1958 38.709 44.4334 41.816 44.4334C60.6535 44.4334 77.6141 35.8781 89.4689 22.2177H89.4699ZM56.8337 21.692C56.8337 21.5475 56.8398 21.4039 56.849 21.2624C56.852 21.2169 56.8561 21.1724 56.8602 21.1269C56.8683 21.0289 56.8785 20.9308 56.8917 20.8338C56.8978 20.7842 56.9049 20.7347 56.912 20.6862C56.9273 20.5841 56.9466 20.484 56.9669 20.3829C56.974 20.3455 56.9801 20.3081 56.9883 20.2707C57.0167 20.1423 57.0493 20.0159 57.0849 19.8916C57.1001 19.839 57.1164 19.7885 57.1326 19.7369C57.157 19.6591 57.1825 19.5812 57.2089 19.5054C57.2292 19.4488 57.2496 19.3922 57.2709 19.3366C57.2994 19.2628 57.3299 19.191 57.3604 19.1193C57.3828 19.0677 57.4041 19.0151 57.4275 18.9636C57.4793 18.8514 57.5332 18.7412 57.5912 18.633C57.6166 18.5845 57.6451 18.538 57.6715 18.4905C57.7101 18.4217 57.7498 18.354 57.7904 18.2873C57.824 18.2327 57.8586 18.1781 57.8942 18.1245C57.9247 18.079 57.9552 18.0335 57.9857 17.9881C58.0223 17.9355 58.0599 17.8829 58.0975 17.8314C58.1321 17.7839 58.1687 17.7384 58.2042 17.6919C58.2419 17.6433 58.2795 17.5948 58.3191 17.5483C58.3588 17.5008 58.3995 17.4553 58.4401 17.4088C58.4788 17.3643 58.5174 17.3198 58.557 17.2774C58.6028 17.2289 58.6496 17.1824 58.6963 17.1349C58.7736 17.057 58.8519 16.9822 58.9322 16.9084C60.0221 15.9167 61.4506 15.3132 63.0163 15.3132C65.188 15.3132 67.1004 16.4687 68.2025 18.2185C68.8329 19.2183 69.2009 20.4102 69.2009 21.694C69.2009 24.0151 68.0002 26.045 66.2047 27.162C66.2057 27.161 66.2077 27.16 66.2088 27.159C66.103 27.2247 65.9952 27.2874 65.8854 27.347C65.859 27.3612 65.8326 27.3753 65.8061 27.3895C65.7187 27.435 65.6313 27.4784 65.5418 27.5199C65.5133 27.533 65.4849 27.5472 65.4554 27.5603C65.3456 27.6088 65.2337 27.6543 65.1209 27.6968C65.0894 27.7089 65.0568 27.719 65.0253 27.7302C64.9399 27.7605 64.8525 27.7898 64.765 27.8161C64.7244 27.8282 64.6827 27.8403 64.641 27.8525C64.5475 27.8788 64.4539 27.902 64.3584 27.9243C64.3309 27.9303 64.3035 27.9384 64.276 27.9435C64.156 27.9687 64.034 27.991 63.911 28.0092C63.8754 28.0142 63.8398 28.0183 63.8042 28.0233C63.7087 28.0354 63.6131 28.0466 63.5175 28.0536C63.4799 28.0567 63.4423 28.0597 63.4047 28.0627C63.2756 28.0708 63.1464 28.0769 63.0153 28.0769C59.6022 28.0769 56.8327 25.2211 56.8327 21.6961L56.8337 21.692Z" fill="#FF0000"></path></g><path d="M125.25 6.54248C128.381 6.54248 131.199 7.23933 133.705 8.63303C136.239 10.0267 138.223 11.9542 139.654 14.4154C141.086 16.8469 141.802 19.5899 141.802 22.6442C141.802 25.6984 141.086 28.4562 139.654 30.9174C138.223 33.349 136.239 35.2616 133.705 36.6553C131.199 38.0491 128.381 38.7459 125.25 38.7459C122.447 38.7459 119.882 38.1973 117.555 37.1001C115.229 35.9733 113.305 34.4165 111.784 32.4298C110.293 30.4133 109.339 28.1152 108.921 25.5354H104.806V38.2121H97.6035V7.07624H104.806V19.3082H109.011C109.488 16.8173 110.472 14.6082 111.963 12.6807C113.484 10.7236 115.393 9.21127 117.69 8.14376C119.986 7.07624 122.506 6.54248 125.25 6.54248ZM125.25 32.6077C126.979 32.6077 128.545 32.1925 129.947 31.3622C131.349 30.532 132.452 29.3607 133.257 27.8483C134.062 26.336 134.465 24.6013 134.465 22.6442C134.465 20.6871 134.062 18.9524 133.257 17.44C132.452 15.9277 131.349 14.7564 129.947 13.9261C128.545 13.0959 126.979 12.6807 125.25 12.6807C123.52 12.6807 121.955 13.0959 120.553 13.9261C119.151 14.7564 118.047 15.9277 117.242 17.44C116.437 18.9524 116.034 20.6871 116.034 22.6442C116.034 24.6013 116.437 26.336 117.242 27.8483C118.047 29.3607 119.151 30.532 120.553 31.3622C121.955 32.1925 123.52 32.6077 125.25 32.6077Z" fill="#212121"></path><path d="M149.686 7.07617H174.961V12.8141H156.888V19.2192H165.567C169.355 19.2192 172.232 20.0049 174.201 21.5766C176.2 23.1483 177.198 25.4167 177.198 28.382C177.198 31.4956 176.095 33.9124 173.888 35.6322C171.681 37.3521 168.564 38.2121 164.538 38.2121H149.686V7.07617ZM164.135 32.8745C165.985 32.8745 167.401 32.5186 168.385 31.807C169.369 31.0657 169.861 29.9982 169.861 28.6044C169.861 25.8763 167.953 24.5123 164.135 24.5123H156.888V32.8745H164.135Z" fill="#FF0000"></path><path d="M206.289 14.2822V34.2092C206.289 38.5978 205.171 41.8597 202.934 43.9948C200.697 46.1298 197.446 47.1973 193.182 47.1973C190.915 47.1973 188.767 46.9156 186.74 46.3522C184.741 45.7888 183.057 44.9733 181.685 43.9058L184.459 38.9241C185.472 39.7543 186.71 40.4068 188.172 40.8812C189.633 41.3556 191.109 41.5929 192.6 41.5929C194.927 41.5929 196.627 41.0591 197.7 39.9916C198.774 38.9241 199.311 37.2932 199.311 35.0988V34.2982C198.416 35.1878 197.357 35.8698 196.134 36.3442C194.911 36.8187 193.599 37.0559 192.198 37.0559C189.036 37.0559 186.531 36.1663 184.682 34.3871C182.833 32.5783 181.909 29.8798 181.909 26.2918V14.2822H188.887V25.2688C188.887 29.1534 190.512 31.0956 193.763 31.0956C195.433 31.0956 196.775 30.5619 197.79 29.4943C198.803 28.3972 199.311 26.7811 199.311 24.646V14.2822H206.289Z" fill="#FF0000"></path><path d="M224.34 38.5681C221.775 38.5681 219.464 38.0492 217.406 37.0113C215.378 35.9438 213.783 34.476 212.62 32.6078C211.486 30.7397 210.92 28.6195 210.92 26.2472C210.92 23.8749 211.486 21.7547 212.62 19.8866C213.783 18.0184 215.378 16.5654 217.406 15.5275C219.464 14.46 221.775 13.9263 224.34 13.9263C226.875 13.9263 229.082 14.46 230.961 15.5275C232.87 16.5654 234.256 18.0629 235.122 20.02L229.709 22.9112C228.456 20.7168 226.651 19.6197 224.296 19.6197C222.476 19.6197 220.97 20.2128 219.777 21.3989C218.584 22.585 217.988 24.2011 217.988 26.2472C217.988 28.2933 218.584 29.9094 219.777 31.0955C220.97 32.2816 222.476 32.8747 224.296 32.8747C226.681 32.8747 228.486 31.7776 229.709 29.5832L235.122 32.5188C234.256 34.4166 232.87 35.8993 230.961 36.9668C229.082 38.0343 226.875 38.5681 224.34 38.5681Z" fill="#FF0000"></path><path d="M270.14 13.9263C273.152 13.9263 275.538 14.8159 277.298 16.5951C279.087 18.3446 279.982 20.9837 279.982 24.5125V38.2123H273.003V25.58C273.003 23.6822 272.601 22.2736 271.795 21.3544C271.02 20.4055 269.901 19.9311 268.44 19.9311C266.799 19.9311 265.502 20.4648 264.548 21.5323C263.594 22.5702 263.117 24.127 263.117 26.2027V38.2123H256.138V25.58C256.138 21.8141 254.617 19.9311 251.575 19.9311C249.965 19.9311 248.682 20.4648 247.728 21.5323C246.773 22.5702 246.297 24.127 246.297 26.2027V38.2123H239.318V14.2821H245.983V17.0399C246.878 16.0317 247.966 15.2607 249.249 14.7269C250.561 14.1931 251.992 13.9263 253.544 13.9263C255.243 13.9263 256.779 14.2672 258.151 14.9493C259.523 15.6016 260.626 16.5654 261.462 17.8405C262.446 16.5951 263.683 15.6314 265.175 14.9493C266.696 14.2672 268.351 13.9263 270.14 13.9263Z" fill="#FF0000"></path></g><path d="M266.371 57.5728H269.405L272.609 65.3909H272.746L275.95 57.5728H278.984V69.2091H276.598V61.6353H276.501L273.49 69.1523H271.865L268.854 61.6068H268.757V69.2091H266.371V57.5728Z" fill="#212121"></path><path d="M261.636 57.5728H264.096V65.1296C264.096 65.9781 263.894 66.7205 263.489 67.3568C263.087 67.9932 262.524 68.4894 261.801 68.8455C261.078 69.1978 260.235 69.3739 259.273 69.3739C258.307 69.3739 257.462 69.1978 256.739 68.8455C256.015 68.4894 255.453 67.9932 255.051 67.3568C254.649 66.7205 254.449 65.9781 254.449 65.1296V57.5728H256.909V64.9193C256.909 65.3625 257.006 65.7565 257.199 66.1012C257.396 66.4459 257.672 66.7167 258.028 66.9137C258.384 67.1106 258.799 67.2091 259.273 67.2091C259.75 67.2091 260.165 67.1106 260.517 66.9137C260.873 66.7167 261.148 66.4459 261.341 66.1012C261.538 65.7565 261.636 65.3625 261.636 64.9193V57.5728Z" fill="#212121"></path><path d="M252.175 57.5728V69.2091H249.714V57.5728H252.175Z" fill="#212121"></path><path d="M234.824 57.5728H237.858L241.062 65.3909H241.199L244.403 57.5728H247.437V69.2091H245.051V61.6353H244.954L241.943 69.1523H240.318L237.307 61.6068H237.21V69.2091H234.824V57.5728Z" fill="#212121"></path><path d="M224.777 69.2091V57.5728H232.618V59.6012H227.237V62.3739H232.214V64.4023H227.237V67.1807H232.64V69.2091H224.777Z" fill="#212121"></path><path d="M214.027 69.2091V57.5728H218.618C219.497 57.5728 220.247 57.73 220.868 58.0443C221.493 58.355 221.968 58.7962 222.294 59.3682C222.623 59.9364 222.788 60.605 222.788 61.3739C222.788 62.1466 222.622 62.8114 222.288 63.3682C221.955 63.9212 221.472 64.3455 220.839 64.6409C220.211 64.9364 219.449 65.0841 218.555 65.0841H215.481V63.1068H218.158C218.627 63.1068 219.017 63.0425 219.328 62.9137C219.639 62.7849 219.87 62.5917 220.021 62.3341C220.176 62.0765 220.254 61.7565 220.254 61.3739C220.254 60.9875 220.176 60.6618 220.021 60.3966C219.87 60.1315 219.637 59.9307 219.322 59.7943C219.012 59.6542 218.62 59.5841 218.146 59.5841H216.487V69.2091H214.027ZM220.311 63.9137L223.203 69.2091H220.487L217.658 63.9137H220.311Z" fill="#212121"></path><path d="M203.417 69.2091V57.5728H208.008C208.891 57.5728 209.643 57.7413 210.264 58.0784C210.885 58.4118 211.359 58.8758 211.685 59.4705C212.014 60.0614 212.179 60.7432 212.179 61.5159C212.179 62.2887 212.012 62.9705 211.679 63.5614C211.346 64.1523 210.863 64.6125 210.23 64.9421C209.601 65.2716 208.84 65.4364 207.946 65.4364H205.02V63.4648H207.548C208.022 63.4648 208.412 63.3834 208.719 63.2205C209.029 63.0538 209.26 62.8246 209.412 62.533C209.567 62.2375 209.645 61.8985 209.645 61.5159C209.645 61.1296 209.567 60.7925 209.412 60.5046C209.26 60.2129 209.029 59.9875 208.719 59.8284C208.408 59.6656 208.014 59.5841 207.537 59.5841H205.878V69.2091H203.417Z" fill="#212121"></path><defs><clipPath id="clip0_973_152"><rect width="280" height="47.2093" fill="white"></rect></clipPath></defs></svg> 