<svg viewBox="0 0 20 20" xmlns="http://www.w3.org/2000/svg">
  <g>
    <path d="M 0 10 C 0 4.477 4.476 0 10 0 C 15.522 0 20 4.477 20 10 C 20 15.523 15.522 20 10 20 C 4.476 20 0 15.523 0 10 Z" fill="#FC3F1D"></path>
    <path d="M 11.28 5.666 L 10.356 5.666 C 8.662 5.666 7.771 6.524 7.771 7.789 C 7.771 9.219 8.387 9.889 9.652 10.748 L 10.697 11.452 L 7.694 15.939 L 5.45 15.939 L 8.145 11.925 C 6.595 10.814 5.725 9.735 5.725 7.91 C 5.725 5.622 7.32 4.06 10.345 4.06 L 13.348 4.06 L 13.348 15.928 L 11.28 15.928 L 11.28 5.666 Z" fill="#fff"></path>
  </g>
</svg>